<svg xmlns="http://www.w3.org/2000/svg" viewBox="0 0 512 512">
  <!-- Logo Only Version -->
  <defs>
    <linearGradient id="greenGradient" x1="0%" y1="0%" x2="100%" y2="100%">
      <stop offset="0%" style="stop-color:#0a8;stop-opacity:1" />
      <stop offset="100%" style="stop-color:#0d6;stop-opacity:1" />
    </linearGradient>
    <filter id="dropShadow" x="-20%" y="-20%" width="140%" height="140%">
      <feGaussianBlur in="SourceAlpha" stdDeviation="5" />
      <feOffset dx="2" dy="2" result="offsetblur" />
      <feComponentTransfer>
        <feFuncA type="linear" slope="0.3" />
      </feComponentTransfer>
      <feMerge>
        <feMergeNode />
        <feMergeNode in="SourceGraphic" />
      </feMerge>
    </filter>
  </defs>

  <!-- Shield Base -->
  <path d="M256 48 L420 120 V240 C420 348 350 432 256 464 C162 432 92 348 92 240 V120 Z" 
        fill="url(#greenGradient)" filter="url(#dropShadow)" />
  
  <!-- Inner Shield Design - Digital Pattern -->
  <path d="M256 80 L380 136 V240 C380 328 325 396 256 420 C187 396 132 328 132 240 V136 Z" 
        fill="#ffffff" fill-opacity="0.1" />
  
  <!-- Digital Circuit Lines -->
  <path d="M190 180 L240 180 L240 230 L290 230 L290 280 L190 280 Z" 
        stroke="#ffffff" stroke-width="4" fill="none" stroke-opacity="0.7" />
  <path d="M220 160 L220 210 L270 210 L270 260 L320 260" 
        stroke="#ffffff" stroke-width="4" fill="none" stroke-opacity="0.7" />
  
  <!-- Checkmark -->
  <path d="M200 240 L230 270 L310 190" 
        stroke="#ffffff" stroke-width="16" fill="none" stroke-linecap="round" stroke-linejoin="round" />
</svg>
